<svg width="512" height="512" viewBox="0 0 512 512" fill="none" xmlns="http://www.w3.org/2000/svg">
  <rect width="512" height="512" rx="120" fill="#0b0f1a"/>
  <rect x="48" y="48" width="416" height="416" rx="96" fill="#0f1524" stroke="rgba(148,163,184,0.35)" stroke-width="6"/>
  <path d="M176 154H280C333.333 154 360 180.667 360 234C360 270 346 294 318 306C346 318 360 344 360 384C360 438.667 333.333 466 280 466H176V154ZM248 214V280H272C292 280 302 270 302 250C302 230 292 214 272 214H248ZM248 334V406H276C298 406 310 392 310 370C310 348 298 334 276 334H248Z" fill="#635bff"/>
</svg>
