<svg width="512" height="512" viewBox="0 0 512 512" fill="none" xmlns="http://www.w3.org/2000/svg">
  <rect width="512" height="512" fill="#0b0f1a"/>
  <circle cx="256" cy="256" r="200" fill="#0f1524" stroke="rgba(148,163,184,0.35)" stroke-width="6"/>
  <path d="M188 172H284C334.667 172 360 197.333 360 248C360 282 347 304 321 316C347 328 360 352 360 392C360 442.667 334.667 468 284 468H188V172ZM248 228V292H272C290 292 300 282 300 260C300 238 290 228 272 228H248ZM248 344V412H276C296 412 306 400 306 378C306 356 296 344 276 344H248Z" fill="#635bff"/>
</svg>
